{"title":"A Good Day to Die Hard 2013 HDRip XviD AC3 - TODE","uid":8473531,"size":727755391,"categoryP":"video","categoryS":"movies","magnet":"?xt=urn:btih:594110f8b781e556fc0f992c45193db8169c2e7c&amp;dn=A+Good+Day+to+Die+Hard+2013+HDRip+XviD+AC3+-+TODE&amp;tr=udp%3A%2F%2Ftracker.openbittorrent.com%3A80&amp;tr=udp%3A%2F%2Fopen.demonii.com%3A1337&amp;tr=udp%3A%2F%2Ftracker.coppersurfer.tk%3A6969&amp;tr=udp%3A%2F%2Fexodus.desync.com%3A6969","seeders":0,"leechers":0,"uploader":"xxxlavalxxx","files":-1,"time":1368552702,"description":"\n &lt;a href=&quot;\nhttp://www.imdb.com/title/tt1606378/&quot; rel=&quot;nofollow&quot; target=&quot;_NEW&quot;&gt;\nhttp://www.imdb.com/title/tt1606378/&lt;/a&gt;\n\n\n[b]John McClane travels to Russia to help out his seemingly wayward son, Jack, only to discover that Jack is a CIA operative working to prevent a nuclear-weapons heist, causing the father and son to team up against underworld forces. \n\n\n\nDirector:\n John Moore\n\nWriters:\n Skip Woods, Roderick Thorp (certain original characters)\n\nStars:\n Bruce Willis, Jai Courtney, Sebastian Koch\n\nGenres:\n Action | Crime | Thriller \n\nCountry:\nUSA\n\n [/b]\n\n\n\nFormat                                   : AVI\nFormat/Info                              : Audio Video Interleave\nFile size                                : 694 MiB\nDuration                                 : 1h 38mn\nOverall bit rate                         : 988 Kbps\nWriting application                      : Lavf55.3.100\n\nVideo\nID                                       : 0\nFormat                                   : MPEG-4 Visual\nFormat profile                           : Simple@L3\nFormat settings, BVOP                    : No\nFormat settings, QPel                    : No\nFormat settings, GMC                     : No warppoints\nFormat settings, Matrix                  : Default (H.263)\nCodec ID                                 : XVID\nCodec ID/Hint                            : XviD\nDuration                                 : 1h 38mn\nBit rate                                 : 850 Kbps\nWidth                                    : 640 pixels\nHeight                                   : 320 pixels\nDisplay aspect ratio                     : 1.85:1\nFrame rate                               : 23.976 fps\nColor space                              : YUV\nChroma subsampling                       : 4:2:0\nBit depth                                : 8 bits\nScan type                                : Progressive\nCompression mode                         : Lossy\nBits/(Pixel*Frame)                       : 0.173\nStream size                              : 597 MiB (86%)\nWriting library                          : XviD 64\n\nAudio\nID                                       : 1\nFormat                                   : AC-3\nFormat/Info                              : Audio Coding 3\nMode extension                           : CM (complete main)\nFormat settings, Endianness              : Big\nCodec ID                                 : 2000\nDuration                                 : 1h 37mn\nBit rate mode                            : Constant\nBit rate                                 : 128 Kbps\nChannel(s)                               : 2 channels\nChannel positions                        : Front: L R\nSampling rate                            : 48.0 KHz\nBit depth                                : 16 bits\nCompression mode                         : Lossy\nStream size                              : 89.4 MiB (13%)\nAlignment                                : Aligned on interleaves\nInterleave, duration                     : 32 ms (0.77 video frame)\n\n\n\n\nScreens:\n\n    &lt;a href=&quot;\thttp://addpix.net/viewer.php?file=80511292358615703711.jpg&quot; rel=&quot;nofollow&quot; target=&quot;_NEW&quot;&gt;\thttp://addpix.net/viewer.php?file=80511292358615703711.jpg&lt;/a&gt;\n    &lt;a href=&quot;\thttp://addpix.net/viewer.php?file=28710913051112359022.jpg&quot; rel=&quot;nofollow&quot; target=&quot;_NEW&quot;&gt;\thttp://addpix.net/viewer.php?file=28710913051112359022.jpg&lt;/a&gt;\n    &lt;a href=&quot;\thttp://addpix.net/viewer.php?file=86745879343652894018.jpg&quot; rel=&quot;nofollow&quot; target=&quot;_NEW&quot;&gt;\thttp://addpix.net/viewer.php?file=86745879343652894018.jpg&lt;/a&gt;\n    &lt;a href=&quot;\thttp://addpix.net/viewer.php?file=51792154097310698953.jpg&quot; rel=&quot;nofollow&quot; target=&quot;_NEW&quot;&gt;\thttp://addpix.net/viewer.php?file=51792154097310698953.jpg&lt;/a&gt;\n    &lt;a href=&quot;\thttp://addpix.net/viewer.php?file=55626615431697627412.jpg&quot; rel=&quot;nofollow&quot; target=&quot;_NEW&quot;&gt;\thttp://addpix.net/viewer.php?file=55626615431697627412.jpg&lt;/a&gt;\n    &lt;a href=&quot;\thttp://addpix.net/viewer.php?file=05383299798779912786.jpg&quot; rel=&quot;nofollow&quot; target=&quot;_NEW&quot;&gt;\thttp://addpix.net/viewer.php?file=05383299798779912786.jpg&lt;/a&gt;","torrent":{"xt":"urn:btih:594110f8b781e556fc0f992c45193db8169c2e7c","amp;dn":"A+Good+Day+to+Die+Hard+2013+HDRip+XviD+AC3+-+TODE","amp;tr":["udp%3A%2F%2Ftracker.openbittorrent.com%3A80","udp%3A%2F%2Fopen.demonii.com%3A1337","udp%3A%2F%2Ftracker.coppersurfer.tk%3A6969","udp%3A%2F%2Fexodus.desync.com%3A6969"],"infoHash":"594110f8b781e556fc0f992c45193db8169c2e7c","infoHashBuffer":{"type":"Buffer","data":[89,65,16,248,183,129,229,86,252,15,153,44,69,25,61,184,22,156,46,124]},"announce":[],"urlList":[]}}